<?xml version="1.0" encoding="UTF-8" standalone="no"?>
<svg width="140px" height="69px" viewBox="0 0 140 69" version="1.1" xmlns="http://www.w3.org/2000/svg" xmlns:xlink="http://www.w3.org/1999/xlink" xmlns:sketch="http://www.bohemiancoding.com/sketch/ns">
    <!-- Generator: Sketch 3.2 (9964) - http://www.bohemiancoding.com/sketch -->
    <title>logo</title>
    <desc>Created with Sketch.</desc>
    <defs/>
    <g id="Page-1" stroke="none" stroke-width="1" fill="none" fill-rule="evenodd" sketch:type="MSPage">
        <g id="logo" sketch:type="MSLayerGroup">
            <path d="M132.681459,10.8830913 C132.681459,10.8830913 135.799671,10.9258846 135.981835,13.1458269 L135.981835,25.3505337 C135.981835,25.3505337 126.776753,25.3445625 125.788518,25.3445625 L123.979388,25.3445625 C124.232047,23.2228125 122.836,22.1393798 118.670588,21.0556154 C114.816471,20.053125 112.783012,17.3803702 112.783012,17.3803702 C112.489176,20.5129038 109.006965,20.6200529 109.006965,20.6200529 C109.064612,20.8011779 109.797882,21.886601 109.806118,22.9365288 C111.992424,22.9225962 112.070824,24.4933413 111.897553,24.8857788 C112.249035,24.9803221 112.183153,25.3326202 112.183153,25.3326202 L108.650871,25.3326202 C108.707859,24.4933413 107.893553,21.7389808 106.179294,21.5757692 C106.468847,20.7753029 106.448424,20.2335865 106.237271,20.056774 C106.025788,19.8849375 105.603482,20.5606731 105.603482,20.5606731 C105.603482,20.5606731 105.156141,21.1886394 104.692659,21.1886394 C105.309647,22.0408558 105.093553,22.3334423 104.978259,22.9365288 C106.969224,22.9365288 107.126353,24.4933413 106.953741,24.8857788 C107.3016,24.9803221 107.239012,25.3326202 107.239012,25.3326202 L103.707388,25.3326202 C103.918212,22.1393798 102.221082,21.6520673 101.541835,21.3989567 C101.733224,20.0352115 102.621976,19.7867452 103.049224,18.8124519 C103.801271,17.0887788 101.733224,16.5450721 101.499671,14.9869327 C100.941647,17.5097452 99.2237647,22.9060096 95.5182118,21.1670769 C92.4408471,19.4722644 95.1703529,15.4215 95.6911529,14.1396923 C96.2086588,12.8575529 95.2945412,12.4747356 94.5863059,12.8197356 C88.8891294,15.0479712 90.0236235,9.46693269 90.0236235,9.46693269 C90.0236235,9.46693269 90.4867765,10.8708173 91.9371765,10.7155673 C93.3852706,10.5603173 94.1218353,8.76897115 96.2244706,9.09672115 C98.3323765,9.42878365 98.6927529,11.8474327 97.2328,13.9678558 C95.6542588,16.2538125 94.2203294,19.2655962 96.0719529,20.1168173 C97.8491294,20.9338702 99.2016941,18.8900769 99.7238118,14.6090913 C100.246259,10.3271106 102.924376,9.21747115 103.909647,9.06321635 C106.9824,8.57557212 110.854306,9.82752404 112.617647,10.3065433 C115.631765,11.1235962 117.205694,10.6800721 117.212941,9.91808654 C117.225129,9.21249519 116.442776,8.65784135 114.472235,8.74309615 C108.833694,8.98459615 106.908612,7.67658173 105.888424,6.88042788 C94.2496471,7.52995673 92.0528,0.0686682692 92.0528,0.0686682692 C92.0528,0.0686682692 97.0489882,3.8079375 109.213835,1.97446154 C113.312376,1.35943269 126.677929,-2.85752885 123.212518,8.556 C123.080424,9.26059615 123.063624,10.2882981 124.111153,10.3065433 C126.023718,10.3324183 125.411341,7.31963942 125.319765,7.08344712 C124.980471,6.1798125 124.061412,3.5405625 124.5832,1.04959615 C125.519059,1.29474519 126.086306,1.24763942 126.823529,2.19008654 C126.823529,2.19008654 129.9368,1.12722115 132.416941,2.56461058 C132.416941,2.56461058 132.951247,1.55349519 134.677694,1.37635096 C134.677694,1.37635096 135.4024,2.40173077 134.135482,4.84061538 C133.096518,7.79666827 133.746447,9.3193125 132.681459,10.8830913 M135.000518,24.3427356 L134.997553,14.3934663 C132.524659,14.3934663 130.492188,16.5198606 130.281035,16.7477596 C130.069553,16.5198606 128.032141,14.3934663 125.564518,14.3934663 L125.564518,22.9484712 C127.369694,22.8622212 127.722494,23.7180865 127.693506,24.3427356 L135.000518,24.3427356" id="Fill-1" fill="#DB322A" sketch:type="MSShapeGroup"/>
            <path d="M8.76992941,32.1019183 L0.469741176,32.1019183 L0.469741176,55.6551346 L8.76992941,55.6551346 L8.76992941,44.4038221 C8.76992941,41.7871298 8.76992941,37.7937548 12.4646118,37.7937548 C16.1563294,37.7937548 16.1563294,41.7871298 16.1563294,44.4038221 L16.1563294,55.6551346 L24.4512471,55.6551346 L24.4512471,44.4038221 C24.4512471,41.6056731 24.5922353,37.9745481 28.4180235,37.9745481 C31.9288941,37.9745481 31.8379765,41.9732308 31.8379765,44.4038221 L31.8379765,55.6551346 L40.1358588,55.6551346 L40.1358588,40.6390096 C40.1358588,35.2261587 38.0839529,31.3216875 32.1591529,31.3216875 C28.9645176,31.3216875 25.8219294,32.8841394 24.2239529,35.819625 C22.5367059,32.6987019 19.6197647,31.3216875 16.2449412,31.3216875 C13.2390588,31.3216875 10.8211765,32.4236971 8.86084706,35.0437067 L8.76992941,35.0437067 L8.76992941,32.1019183" id="Fill-2" fill="#1A1918" sketch:type="MSShapeGroup"/>
            <path d="M56.3702588,38.5736538 C59.7424471,38.5736538 61.7034353,41.0098846 61.7034353,43.9005865 C61.7034353,46.8825144 59.7424471,49.1804135 56.3702588,49.1804135 C52.9957647,49.1804135 51.0351059,46.8825144 51.0351059,43.9005865 C51.0351059,41.0098846 52.9957647,38.5736538 56.3702588,38.5736538 M69.7246118,32.1019183 L61.4296941,32.1019183 L61.4296941,34.3991538 C59.6950118,32.3294856 56.8712941,31.3216875 54.1776941,31.3216875 C47.2485176,31.3216875 42.4624941,37.1057452 42.4624941,43.8534808 C42.4624941,50.5998894 47.3417412,56.4317163 54.2712471,56.4317163 C57.0060235,56.4317163 59.8771765,55.3764808 61.3368,53.0354567 L61.4296941,53.0354567 L61.4296941,55.6551346 L69.7246118,55.6551346 L69.7246118,32.1019183" id="Fill-3" fill="#1A1918" sketch:type="MSShapeGroup"/>
            <path d="M80.7328941,32.1019183 L72.4389647,32.1019183 L72.4389647,55.6551346 L80.7328941,55.6551346 L80.7328941,46.1477308 C80.7328941,42.110899 81.8779294,39.0384087 86.4791529,39.0384087 C87.7546353,39.0384087 88.8499294,39.1707692 89.9916706,39.8133317 L89.9916706,31.7791442 L88.3936941,31.7791442 C85.1542588,31.7791442 82.4217882,33.0655962 80.8254588,35.9566298 L80.7328941,35.9566298 L80.7328941,32.1019183" id="Fill-4" fill="#1A1918" sketch:type="MSShapeGroup"/>
            <path d="M109.917459,32.6987019 C108.277976,31.7791442 106.365412,31.3216875 104.447576,31.3216875 C97.1072941,31.3216875 91.3649882,36.5554038 91.3649882,44.129149 C91.3649882,51.2464327 97.1570353,56.4317163 104.083906,56.4317163 C106.087718,56.4317163 108.096141,56.0187115 109.917459,55.101476 L109.917459,48.0319615 C108.829412,49.0430769 107.230447,49.6408558 105.774118,49.6408558 C102.353176,49.6408558 99.9356235,47.2487452 99.9356235,43.8534808 C99.9356235,40.5955529 102.444424,38.1181875 105.6328,38.1181875 C107.230447,38.1181875 108.683482,38.8476635 109.917459,39.7702067 L109.917459,32.6987019" id="Fill-5" fill="#1A1918" sketch:type="MSShapeGroup"/>
            <path d="M125.747012,31.3216875 C118.223576,31.3216875 111.661035,35.8667308 111.661035,43.9005865 C111.661035,51.9341106 118.269365,56.4317163 125.747012,56.4317163 C133.266165,56.4317163 139.832659,51.8886635 139.832659,43.9005865 C139.832659,35.8667308 133.266165,31.3216875 125.747012,31.3216875 M125.747012,38.5736538 C129.117553,38.5736538 131.080847,41.0098846 131.080847,43.9005865 C131.080847,46.8825144 129.117553,49.1804135 125.747012,49.1804135 C122.371529,49.1804135 120.409882,46.8825144 120.409882,43.9005865 C120.409882,41.0098846 122.371529,38.5736538 125.747012,38.5736538" id="Fill-6" fill="#1A1918" sketch:type="MSShapeGroup"/>
            <path d="M19.8137882,2.49162981 C17.3959059,1.38995192 14.7523765,0.971971154 12.1088471,0.971971154 C7.00362353,0.971971154 1.80748235,3.5405625 1.80748235,9.32992788 C1.80748235,13.5502067 4.40357647,14.8376538 7.00362353,15.5253317 C9.604,16.2136731 12.2000941,16.3095433 12.2000941,18.1463365 C12.2000941,19.428476 10.6469176,19.9376827 9.604,19.9376827 C7.54978824,19.9376827 4.72672941,18.7407981 3.03717647,17.5478942 L0.0289882353,23.3754087 C2.85468235,25.1216394 6.13792941,26.0853173 9.46729412,26.0853173 C14.8867765,26.0853173 20.4992941,23.5160625 20.4992941,17.3143558 C20.4992941,12.9524279 17.5803765,11.1192837 13.7028706,10.3400481 C12.5647529,10.1088317 9.96635294,9.88026923 9.96635294,8.27369712 C9.96635294,7.07880288 11.6078118,6.66480288 12.5647529,6.66480288 C13.9759529,6.66480288 15.7524706,7.12624038 17.0338824,7.81458173 L19.8137882,2.49162981" id="Fill-7" fill="#1A1918" sketch:type="MSShapeGroup"/>
            <path d="M35.7882824,8.22791827 C39.1624471,8.22791827 41.1231059,10.6628221 41.1231059,13.5502067 C41.1231059,16.5407596 39.1624471,18.8297019 35.7882824,18.8297019 C32.4157647,18.8297019 30.4570824,16.5407596 30.4570824,13.5502067 C30.4570824,10.6628221 32.4157647,8.22791827 35.7882824,8.22791827 M49.1449412,1.7551875 L40.8477176,1.7551875 L40.8477176,4.04844231 C39.1169882,1.98408173 36.2909647,0.971971154 33.6036235,0.971971154 C26.6731294,0.971971154 21.8844706,6.75602885 21.8844706,13.503101 C21.8844706,20.2541538 26.7614118,26.0853173 33.6928941,26.0853173 C36.4256941,26.0853173 39.2991529,25.0304135 40.7587765,22.6854087 L40.8477176,22.6854087 L40.8477176,25.3067452 L49.1449412,25.3067452 L49.1449412,1.7551875" id="Fill-8" fill="#1A1918" sketch:type="MSShapeGroup"/>
            <path d="M60.2477647,1.7551875 L51.9525176,1.7551875 L51.9525176,25.3067452 L60.2477647,25.3067452 L60.2477647,13.0940769 C60.2477647,10.1542788 61.2063529,7.63345673 64.5808471,7.63345673 C68.684,7.63345673 68.3173647,11.57475 68.3173647,13.8255433 L68.3173647,25.3067452 L76.6145882,25.3067452 L76.6145882,10.7490721 C76.6145882,4.96667308 74.1080941,0.971971154 67.8186353,0.971971154 C64.5808471,0.971971154 62.2535529,1.93664423 60.3413176,4.78057212 L60.2477647,4.78057212 L60.2477647,1.7551875" id="Fill-9" fill="#1A1918" sketch:type="MSShapeGroup"/>
            <path d="M2.28084706,68.7482163 C1.36277647,68.7482163 0.725035294,68.2615673 0.261223529,67.6780529 L1.08244706,66.7923317 C1.48861176,67.3177933 1.92343529,67.5705721 2.32927059,67.5705721 C2.83195294,67.5705721 3.08296471,67.288601 3.08296471,66.8311442 C3.08296471,66.4416923 2.84150588,66.1305288 2.04894118,65.7215048 C1.04390588,65.1960433 0.435152941,64.6802019 0.435152941,63.5513221 C0.435152941,62.5292596 1.18884706,61.7218269 2.32927059,61.7218269 C3.17025882,61.7218269 3.69204706,62.0621827 4.17496471,62.6947933 L3.37284706,63.5028894 C2.97689412,63.0550529 2.76409412,62.8991394 2.30028235,62.8991394 C1.91388235,62.8991394 1.66221176,63.15225 1.66221176,63.4929375 C1.66221176,63.9016298 1.89444706,64.1547404 2.62903529,64.5538125 C3.79811765,65.1864231 4.31035294,65.6535 4.31035294,66.8019519 C4.31035294,67.9308317 3.53722353,68.7482163 2.28084706,68.7482163" id="Fill-10" fill="#DB322A" sketch:type="MSShapeGroup"/>
            <path d="M5.25741176,61.8286442 L6.46536471,61.8286442 L6.46536471,68.641399 L5.25741176,68.641399 L5.25741176,61.8286442 Z" id="Fill-11" fill="#DB322A" sketch:type="MSShapeGroup"/>
            <path d="M9.39383529,68.7482163 C8.47576471,68.7482163 7.83802353,68.2615673 7.37388235,67.6780529 L8.19543529,66.7923317 C8.60127059,67.3177933 9.03642353,67.5705721 9.44225882,67.5705721 C9.94494118,67.5705721 10.1959529,67.288601 10.1959529,66.8311442 C10.1959529,66.4416923 9.95449412,66.1305288 9.16192941,65.7215048 C8.15689412,65.1960433 7.54781176,64.6802019 7.54781176,63.5513221 C7.54781176,62.5292596 8.30183529,61.7218269 9.44225882,61.7218269 C10.2829176,61.7218269 10.8047059,62.0621827 11.2879529,62.6947933 L10.4858353,63.5028894 C10.0895529,63.0550529 9.87708235,62.8991394 9.41327059,62.8991394 C9.02654118,62.8991394 8.7752,63.15225 8.7752,63.4929375 C8.7752,63.9016298 9.00710588,64.1547404 9.74169412,64.5538125 C10.9111059,65.1864231 11.4233412,65.6535 11.4233412,66.8019519 C11.4233412,67.9308317 10.6502118,68.7482163 9.39383529,68.7482163" id="Fill-12" fill="#DB322A" sketch:type="MSShapeGroup"/>
            <path d="M14.5448471,62.9963365 L14.5448471,68.641399 L13.3368941,68.641399 L13.3368941,62.9963365 L11.9352471,62.9963365 L11.9352471,61.8286442 L15.9461647,61.8286442 L15.9461647,62.9963365 L14.5448471,62.9963365" id="Fill-13" fill="#DB322A" sketch:type="MSShapeGroup"/>
            <path d="M16.8158118,68.641399 L16.8158118,61.8286442 L20.2855059,61.8286442 L20.2855059,62.9963365 L18.0240941,62.9963365 L18.0240941,64.4370433 L19.5413647,64.4370433 L19.5413647,65.5854952 L18.0240941,65.5854952 L18.0240941,67.473375 L20.3724706,67.473375 L20.3724706,68.641399 L16.8158118,68.641399" id="Fill-14" fill="#DB322A" sketch:type="MSShapeGroup"/>
            <path d="M25.2431529,68.641399 L25.2431529,66.4416923 C25.2431529,65.6342596 25.2530353,64.8848798 25.2625882,64.3783269 C25.1272,64.8653077 24.9051765,65.6243077 24.6538353,66.4028798 L23.8708235,68.8165529 L23.0881412,66.4028798 C22.8466824,65.6342596 22.6144471,64.8653077 22.4793882,64.3783269 C22.4889412,64.8848798 22.4984941,65.6342596 22.4984941,66.4416923 L22.4984941,68.641399 L21.4160471,68.641399 L21.4160471,61.8286442 L22.6338824,61.8286442 L23.436,64.3494663 C23.6389176,64.9820769 23.8322824,65.5659231 23.8902588,65.8870385 C23.9581176,65.546351 24.1511529,64.9528846 24.3445176,64.3494663 L25.1466353,61.8286442 L26.3450353,61.8286442 L26.3450353,68.641399 L25.2431529,68.641399" id="Fill-15" fill="#DB322A" sketch:type="MSShapeGroup"/>
            <path d="M27.6495059,61.8286442 L28.8574588,61.8286442 L28.8574588,68.641399 L27.6495059,68.641399 L27.6495059,61.8286442 Z" id="Fill-16" fill="#DB322A" sketch:type="MSShapeGroup"/>
            <path d="M34.8303529,68.641399 L33.6510588,68.641399 L32.0178353,61.8286442 L33.2646588,61.8286442 L33.9218353,65.1184183 C34.0183529,65.6243077 34.2021647,66.5488413 34.2407059,66.8507163 C34.2795765,66.5488413 34.4630588,65.6050673 34.5595765,65.1184183 L35.2072,61.8286442 L36.4441412,61.8286442 L34.8303529,68.641399" id="Fill-17" fill="#DB322A" sketch:type="MSShapeGroup"/>
            <path d="M37.3332235,68.641399 L37.3332235,61.8286442 L40.8029176,61.8286442 L40.8029176,62.9963365 L38.5415059,62.9963365 L38.5415059,64.4370433 L40.0584471,64.4370433 L40.0584471,65.5854952 L38.5415059,65.5854952 L38.5415059,67.473375 L40.8895529,67.473375 L40.8895529,68.641399 L37.3332235,68.641399" id="Fill-18" fill="#DB322A" sketch:type="MSShapeGroup"/>
            <path d="M44.5911529,68.641399 L43.5376941,66.0525721 L43.1414118,66.0525721 L43.1414118,68.641399 L41.9334588,68.641399 L41.9334588,61.8286442 L43.7310588,61.8286442 C45.0454118,61.8286442 45.8860706,62.5388798 45.8860706,63.9503942 C45.8860706,64.9041202 45.4031529,65.4975865 44.7456471,65.8094135 L45.9055059,68.641399 L44.5911529,68.641399 L44.5911529,68.641399 Z M43.6730824,63.0159087 L43.1414118,63.0159087 L43.1414118,64.9140721 L43.7406118,64.9140721 C44.3592471,64.9140721 44.6781176,64.592625 44.6781176,63.9699663 C44.6781176,63.3565962 44.3977882,63.0159087 43.6730824,63.0159087 L43.6730824,63.0159087 Z" id="Fill-19" fill="#DB322A" sketch:type="MSShapeGroup"/>
            <path d="M49.7036235,68.641399 L48.4568,65.6050673 C48.2828706,65.1768029 48.0704,64.6218173 47.9445647,64.2230769 C47.9544471,64.6413894 47.964,65.3423365 47.964,65.7702692 L47.964,68.641399 L46.8621176,68.641399 L46.8621176,61.8286442 L48.0799529,61.8286442 L49.2684706,64.8165433 C49.4331765,65.2252356 49.6746353,65.8578462 49.8001412,66.2376779 C49.7905882,65.8190337 49.7616,65.079274 49.7616,64.6513413 L49.7616,61.8286442 L50.8631529,61.8286442 L50.8631529,68.641399 L49.7036235,68.641399" id="Fill-20" fill="#DB322A" sketch:type="MSShapeGroup"/>
            <path d="M52.1679529,61.8286442 L53.3759059,61.8286442 L53.3759059,68.641399 L52.1679529,68.641399 L52.1679529,61.8286442 Z" id="Fill-21" fill="#DB322A" sketch:type="MSShapeGroup"/>
            <path d="M56.6328,68.7482163 C55.1349647,68.7482163 54.4389176,67.201024 54.4389176,65.2448077 C54.4389176,63.2789712 55.1540706,61.7218269 56.6522353,61.7218269 C57.8022118,61.7218269 58.3048941,62.4612548 58.5657882,63.4441731 L57.4349176,63.8140529 C57.2609882,63.1910625 57.0775059,62.9382837 56.6328,62.9382837 C55.9855059,62.9382837 55.6761882,63.7752404 55.6761882,65.2252356 C55.6761882,66.6752308 55.9950588,67.5317596 56.6522353,67.5317596 C57.0676235,67.5317596 57.2804235,67.2982212 57.5314353,66.5587933 L58.5753412,67.0062981 C58.2564706,68.1255577 57.6668235,68.7482163 56.6328,68.7482163" id="Fill-22" fill="#DB322A" sketch:type="MSShapeGroup"/>
            <path d="M59.5612706,61.8286442 L60.7692235,61.8286442 L60.7692235,68.641399 L59.5612706,68.641399 L59.5612706,61.8286442 Z" id="Fill-23" fill="#DB322A" sketch:type="MSShapeGroup"/>
            <path d="M65.1085647,68.641399 L64.7896941,67.2205962 L63.2720941,67.2205962 L62.9532235,68.641399 L61.7162824,68.641399 L63.4463529,61.8286442 L64.6253176,61.8286442 L66.3553882,68.641399 L65.1085647,68.641399 L65.1085647,68.641399 Z M64.3449882,65.274 C64.2290353,64.7485385 64.0745412,63.9603462 64.0261176,63.6193269 C63.9776941,63.9699663 63.8423059,64.699774 63.7168,65.2544279 L63.5333176,66.0817644 L64.5288,66.0817644 L64.3449882,65.274 L64.3449882,65.274 Z" id="Fill-24" fill="#DB322A" sketch:type="MSShapeGroup"/>
            <path d="M70.0952,68.641399 L68.8483765,65.6050673 C68.6747765,65.1768029 68.4619765,64.6218173 68.3364706,64.2230769 C68.3460235,64.6413894 68.3555765,65.3423365 68.3555765,65.7702692 L68.3555765,68.641399 L67.2540235,68.641399 L67.2540235,61.8286442 L68.4715294,61.8286442 L69.6603765,64.8165433 C69.8247529,65.2252356 70.0662118,65.8578462 70.1917176,66.2376779 C70.1821647,65.8190337 70.1531765,65.079274 70.1531765,64.6513413 L70.1531765,61.8286442 L71.2550588,61.8286442 L71.2550588,68.641399 L70.0952,68.641399" id="Fill-25" fill="#DB322A" sketch:type="MSShapeGroup"/>
            <path d="M74.7339765,62.9963365 L74.7339765,68.641399 L73.5260235,68.641399 L73.5260235,62.9963365 L72.1247059,62.9963365 L72.1247059,61.8286442 L76.1352941,61.8286442 L76.1352941,62.9963365 L74.7339765,62.9963365" id="Fill-26" fill="#DB322A" sketch:type="MSShapeGroup"/>
            <path d="M77.0533647,61.8286442 L78.2613176,61.8286442 L78.2613176,68.641399 L77.0533647,68.641399 L77.0533647,61.8286442 Z" id="Fill-27" fill="#DB322A" sketch:type="MSShapeGroup"/>
            <path d="M83.5381647,66.1985337 L82.9969412,66.1985337 L82.9969412,68.641399 L81.7889882,68.641399 L81.7889882,61.8286442 L83.5865882,61.8286442 C84.8719529,61.8286442 85.7416,62.5680721 85.7416,63.9991587 C85.7416,65.4683942 84.6881412,66.1985337 83.5381647,66.1985337 L83.5381647,66.1985337 Z M83.5770353,63.0159087 L82.9969412,63.0159087 L82.9969412,65.0112692 L83.5961412,65.0112692 C84.2144471,65.0112692 84.5336471,64.6413894 84.5336471,64.018399 C84.5336471,63.4537933 84.2823059,63.0159087 83.5770353,63.0159087 L83.5770353,63.0159087 Z" id="Fill-28" fill="#DB322A" sketch:type="MSShapeGroup"/>
            <path d="M86.6016941,68.641399 L86.6016941,61.8286442 L90.0713882,61.8286442 L90.0713882,62.9963365 L87.8096471,62.9963365 L87.8096471,64.4370433 L89.3269176,64.4370433 L89.3269176,65.5854952 L87.8096471,65.5854952 L87.8096471,67.473375 L90.1580235,67.473375 L90.1580235,68.641399 L86.6016941,68.641399" id="Fill-29" fill="#DB322A" sketch:type="MSShapeGroup"/>
            <path d="M93.8596235,68.641399 L92.8061647,66.0525721 L92.4098824,66.0525721 L92.4098824,68.641399 L91.2016,68.641399 L91.2016,61.8286442 L92.9992,61.8286442 C94.3138824,61.8286442 95.1545412,62.5388798 95.1545412,63.9503942 C95.1545412,64.9041202 94.6716235,65.4975865 94.0141176,65.8094135 L95.1739765,68.641399 L93.8596235,68.641399 L93.8596235,68.641399 Z M92.9415529,63.0159087 L92.4098824,63.0159087 L92.4098824,64.9140721 L93.0090824,64.9140721 C93.6277176,64.9140721 93.9465882,64.592625 93.9465882,63.9699663 C93.9465882,63.3565962 93.6662588,63.0159087 92.9415529,63.0159087 L92.9415529,63.0159087 Z" id="Fill-30" fill="#DB322A" sketch:type="MSShapeGroup"/>
            <path d="M98.3534588,68.641399 L98.3534588,61.8286442 L99.5614118,61.8286442 L99.5614118,67.4541346 L101.677882,67.4541346 L101.677882,68.641399 L98.3534588,68.641399" id="Fill-31" fill="#DB322A" sketch:type="MSShapeGroup"/>
            <path d="M103.649412,65.0112692 L102.827859,65.0112692 L102.518871,61.8286442 L103.958729,61.8286442 L103.649412,65.0112692" id="Fill-32" fill="#DB322A" sketch:type="MSShapeGroup"/>
            <path d="M105.099153,68.641399 L105.099153,61.8286442 L108.568518,61.8286442 L108.568518,62.9963365 L106.307106,62.9963365 L106.307106,64.4370433 L107.824376,64.4370433 L107.824376,65.5854952 L106.307106,65.5854952 L106.307106,67.473375 L108.655482,67.473375 L108.655482,68.641399 L105.099153,68.641399" id="Fill-33" fill="#DB322A" sketch:type="MSShapeGroup"/>
            <path d="M111.196894,68.641399 L109.699388,68.641399 L109.699388,61.8286442 L111.225882,61.8286442 C112.849882,61.8286442 113.806494,62.8311346 113.806494,65.2252356 C113.806494,67.6196683 112.782024,68.641399 111.196894,68.641399 L111.196894,68.641399 Z M111.225882,63.0159087 L110.907341,63.0159087 L110.907341,67.4541346 L111.225882,67.4541346 C112.308659,67.4541346 112.569224,66.5004087 112.569224,65.2448077 C112.569224,63.9895385 112.308659,63.0159087 111.225882,63.0159087 L111.225882,63.0159087 Z" id="Fill-34" fill="#DB322A" sketch:type="MSShapeGroup"/>
            <path d="M114.869506,61.8286442 L116.077788,61.8286442 L116.077788,68.641399 L114.869506,68.641399 L114.869506,61.8286442 Z" id="Fill-35" fill="#DB322A" sketch:type="MSShapeGroup"/>
            <path d="M117.382259,68.641399 L117.382259,61.8286442 L118.590541,61.8286442 L118.590541,67.4541346 L120.707012,67.4541346 L120.707012,68.641399 L117.382259,68.641399" id="Fill-36" fill="#DB322A" sketch:type="MSShapeGroup"/>
            <path d="M121.711718,61.8286442 L122.919671,61.8286442 L122.919671,68.641399 L121.711718,68.641399 L121.711718,61.8286442 Z" id="Fill-37" fill="#DB322A" sketch:type="MSShapeGroup"/>
            <path d="M123.954024,68.641399 L123.954024,67.5609519 L125.916,63.7656202 C126.089929,63.424601 126.254306,63.1426298 126.399247,62.9090913 C126.157459,62.9187115 125.877129,62.9283317 125.539153,62.9283317 L124.1184,62.9283317 L124.1184,61.8286442 L127.645741,61.8286442 L127.645741,62.9090913 L125.703529,66.7047548 C125.529271,67.0451106 125.364894,67.3274135 125.219953,67.5609519 C125.461741,67.5513317 125.742071,67.5413798 126.080047,67.5413798 L127.645741,67.5413798 L127.645741,68.641399 L123.954024,68.641399" id="Fill-38" fill="#DB322A" sketch:type="MSShapeGroup"/>
            <path d="M128.8056,61.8286442 L130.013553,61.8286442 L130.013553,68.641399 L128.8056,68.641399 L128.8056,61.8286442 Z" id="Fill-39" fill="#DB322A" sketch:type="MSShapeGroup"/>
            <path d="M134.352565,68.641399 L134.034024,67.2205962 L132.516424,67.2205962 L132.197882,68.641399 L130.960612,68.641399 L132.690353,61.8286442 L133.869647,61.8286442 L135.599718,68.641399 L134.352565,68.641399 L134.352565,68.641399 Z M133.589318,65.274 C133.473365,64.7485385 133.318871,63.9603462 133.270447,63.6193269 C133.222024,63.9699663 133.086965,64.699774 132.961129,65.2544279 L132.777318,66.0817644 L133.773129,66.0817644 L133.589318,65.274 L133.589318,65.274 Z" id="Fill-40" fill="#DB322A" sketch:type="MSShapeGroup"/>
            <path d="M2.28084706,68.7482163 C1.36277647,68.7482163 0.725035294,68.2615673 0.261223529,67.6780529 L1.08244706,66.7923317 C1.48861176,67.3177933 1.92343529,67.5705721 2.32927059,67.5705721 C2.83195294,67.5705721 3.08296471,67.288601 3.08296471,66.8311442 C3.08296471,66.4416923 2.84150588,66.1305288 2.04894118,65.7215048 C1.04390588,65.1960433 0.435152941,64.6802019 0.435152941,63.5513221 C0.435152941,62.5292596 1.18884706,61.7218269 2.32927059,61.7218269 C3.17025882,61.7218269 3.69204706,62.0621827 4.17496471,62.6947933 L3.37284706,63.5028894 C2.97689412,63.0550529 2.76409412,62.8991394 2.30028235,62.8991394 C1.91388235,62.8991394 1.66221176,63.15225 1.66221176,63.4929375 C1.66221176,63.9016298 1.89444706,64.1547404 2.62903529,64.5538125 C3.79811765,65.1864231 4.31035294,65.6535 4.31035294,66.8019519 C4.31035294,67.9308317 3.53722353,68.7482163 2.28084706,68.7482163" id="Fill-41" fill="#DB322A" sketch:type="MSShapeGroup"/>
            <path d="M5.25741176,61.8286442 L6.46536471,61.8286442 L6.46536471,68.641399 L5.25741176,68.641399 L5.25741176,61.8286442 Z" id="Fill-42" fill="#DB322A" sketch:type="MSShapeGroup"/>
            <path d="M9.39383529,68.7482163 C8.47576471,68.7482163 7.83802353,68.2615673 7.37388235,67.6780529 L8.19543529,66.7923317 C8.60127059,67.3177933 9.03642353,67.5705721 9.44225882,67.5705721 C9.94494118,67.5705721 10.1959529,67.288601 10.1959529,66.8311442 C10.1959529,66.4416923 9.95449412,66.1305288 9.16192941,65.7215048 C8.15689412,65.1960433 7.54781176,64.6802019 7.54781176,63.5513221 C7.54781176,62.5292596 8.30183529,61.7218269 9.44225882,61.7218269 C10.2829176,61.7218269 10.8047059,62.0621827 11.2879529,62.6947933 L10.4858353,63.5028894 C10.0895529,63.0550529 9.87708235,62.8991394 9.41327059,62.8991394 C9.02654118,62.8991394 8.7752,63.15225 8.7752,63.4929375 C8.7752,63.9016298 9.00710588,64.1547404 9.74169412,64.5538125 C10.9111059,65.1864231 11.4233412,65.6535 11.4233412,66.8019519 C11.4233412,67.9308317 10.6502118,68.7482163 9.39383529,68.7482163" id="Fill-43" fill="#DB322A" sketch:type="MSShapeGroup"/>
            <path d="M14.5448471,62.9963365 L14.5448471,68.641399 L13.3368941,68.641399 L13.3368941,62.9963365 L11.9352471,62.9963365 L11.9352471,61.8286442 L15.9461647,61.8286442 L15.9461647,62.9963365 L14.5448471,62.9963365" id="Fill-44" fill="#DB322A" sketch:type="MSShapeGroup"/>
            <path d="M16.8158118,68.641399 L16.8158118,61.8286442 L20.2855059,61.8286442 L20.2855059,62.9963365 L18.0240941,62.9963365 L18.0240941,64.4370433 L19.5413647,64.4370433 L19.5413647,65.5854952 L18.0240941,65.5854952 L18.0240941,67.473375 L20.3724706,67.473375 L20.3724706,68.641399 L16.8158118,68.641399" id="Fill-45" fill="#DB322A" sketch:type="MSShapeGroup"/>
            <path d="M25.2431529,68.641399 L25.2431529,66.4416923 C25.2431529,65.6342596 25.2530353,64.8848798 25.2625882,64.3783269 C25.1272,64.8653077 24.9051765,65.6243077 24.6538353,66.4028798 L23.8708235,68.8165529 L23.0881412,66.4028798 C22.8466824,65.6342596 22.6144471,64.8653077 22.4793882,64.3783269 C22.4889412,64.8848798 22.4984941,65.6342596 22.4984941,66.4416923 L22.4984941,68.641399 L21.4160471,68.641399 L21.4160471,61.8286442 L22.6338824,61.8286442 L23.436,64.3494663 C23.6389176,64.9820769 23.8322824,65.5659231 23.8902588,65.8870385 C23.9581176,65.546351 24.1511529,64.9528846 24.3445176,64.3494663 L25.1466353,61.8286442 L26.3450353,61.8286442 L26.3450353,68.641399 L25.2431529,68.641399" id="Fill-46" fill="#DB322A" sketch:type="MSShapeGroup"/>
            <path d="M27.6495059,61.8286442 L28.8574588,61.8286442 L28.8574588,68.641399 L27.6495059,68.641399 L27.6495059,61.8286442 Z" id="Fill-47" fill="#DB322A" sketch:type="MSShapeGroup"/>
            <path d="M34.8303529,68.641399 L33.6510588,68.641399 L32.0178353,61.8286442 L33.2646588,61.8286442 L33.9218353,65.1184183 C34.0183529,65.6243077 34.2021647,66.5488413 34.2407059,66.8507163 C34.2795765,66.5488413 34.4630588,65.6050673 34.5595765,65.1184183 L35.2072,61.8286442 L36.4441412,61.8286442 L34.8303529,68.641399" id="Fill-48" fill="#DB322A" sketch:type="MSShapeGroup"/>
            <path d="M37.3332235,68.641399 L37.3332235,61.8286442 L40.8029176,61.8286442 L40.8029176,62.9963365 L38.5415059,62.9963365 L38.5415059,64.4370433 L40.0584471,64.4370433 L40.0584471,65.5854952 L38.5415059,65.5854952 L38.5415059,67.473375 L40.8895529,67.473375 L40.8895529,68.641399 L37.3332235,68.641399" id="Fill-49" fill="#DB322A" sketch:type="MSShapeGroup"/>
            <path d="M44.5911529,68.641399 L43.5376941,66.0525721 L43.1414118,66.0525721 L43.1414118,68.641399 L41.9334588,68.641399 L41.9334588,61.8286442 L43.7310588,61.8286442 C45.0454118,61.8286442 45.8860706,62.5388798 45.8860706,63.9503942 C45.8860706,64.9041202 45.4031529,65.4975865 44.7456471,65.8094135 L45.9055059,68.641399 L44.5911529,68.641399 L44.5911529,68.641399 Z M43.6730824,63.0159087 L43.1414118,63.0159087 L43.1414118,64.9140721 L43.7406118,64.9140721 C44.3592471,64.9140721 44.6781176,64.592625 44.6781176,63.9699663 C44.6781176,63.3565962 44.3977882,63.0159087 43.6730824,63.0159087 L43.6730824,63.0159087 Z" id="Fill-50" fill="#DB322A" sketch:type="MSShapeGroup"/>
            <path d="M49.7036235,68.641399 L48.4568,65.6050673 C48.2828706,65.1768029 48.0704,64.6218173 47.9445647,64.2230769 C47.9544471,64.6413894 47.964,65.3423365 47.964,65.7702692 L47.964,68.641399 L46.8621176,68.641399 L46.8621176,61.8286442 L48.0799529,61.8286442 L49.2684706,64.8165433 C49.4331765,65.2252356 49.6746353,65.8578462 49.8001412,66.2376779 C49.7905882,65.8190337 49.7616,65.079274 49.7616,64.6513413 L49.7616,61.8286442 L50.8631529,61.8286442 L50.8631529,68.641399 L49.7036235,68.641399" id="Fill-51" fill="#DB322A" sketch:type="MSShapeGroup"/>
            <path d="M52.1679529,61.8286442 L53.3759059,61.8286442 L53.3759059,68.641399 L52.1679529,68.641399 L52.1679529,61.8286442 Z" id="Fill-52" fill="#DB322A" sketch:type="MSShapeGroup"/>
            <path d="M56.6328,68.7482163 C55.1349647,68.7482163 54.4389176,67.201024 54.4389176,65.2448077 C54.4389176,63.2789712 55.1540706,61.7218269 56.6522353,61.7218269 C57.8022118,61.7218269 58.3048941,62.4612548 58.5657882,63.4441731 L57.4349176,63.8140529 C57.2609882,63.1910625 57.0775059,62.9382837 56.6328,62.9382837 C55.9855059,62.9382837 55.6761882,63.7752404 55.6761882,65.2252356 C55.6761882,66.6752308 55.9950588,67.5317596 56.6522353,67.5317596 C57.0676235,67.5317596 57.2804235,67.2982212 57.5314353,66.5587933 L58.5753412,67.0062981 C58.2564706,68.1255577 57.6668235,68.7482163 56.6328,68.7482163" id="Fill-53" fill="#DB322A" sketch:type="MSShapeGroup"/>
            <path d="M59.5612706,61.8286442 L60.7692235,61.8286442 L60.7692235,68.641399 L59.5612706,68.641399 L59.5612706,61.8286442 Z" id="Fill-54" fill="#DB322A" sketch:type="MSShapeGroup"/>
            <path d="M65.1085647,68.641399 L64.7896941,67.2205962 L63.2720941,67.2205962 L62.9532235,68.641399 L61.7162824,68.641399 L63.4463529,61.8286442 L64.6253176,61.8286442 L66.3553882,68.641399 L65.1085647,68.641399 L65.1085647,68.641399 Z M64.3449882,65.274 C64.2290353,64.7485385 64.0745412,63.9603462 64.0261176,63.6193269 C63.9776941,63.9699663 63.8423059,64.699774 63.7168,65.2544279 L63.5333176,66.0817644 L64.5288,66.0817644 L64.3449882,65.274 L64.3449882,65.274 Z" id="Fill-55" fill="#DB322A" sketch:type="MSShapeGroup"/>
            <path d="M70.0952,68.641399 L68.8483765,65.6050673 C68.6747765,65.1768029 68.4619765,64.6218173 68.3364706,64.2230769 C68.3460235,64.6413894 68.3555765,65.3423365 68.3555765,65.7702692 L68.3555765,68.641399 L67.2540235,68.641399 L67.2540235,61.8286442 L68.4715294,61.8286442 L69.6603765,64.8165433 C69.8247529,65.2252356 70.0662118,65.8578462 70.1917176,66.2376779 C70.1821647,65.8190337 70.1531765,65.079274 70.1531765,64.6513413 L70.1531765,61.8286442 L71.2550588,61.8286442 L71.2550588,68.641399 L70.0952,68.641399" id="Fill-56" fill="#DB322A" sketch:type="MSShapeGroup"/>
            <path d="M74.7339765,62.9963365 L74.7339765,68.641399 L73.5260235,68.641399 L73.5260235,62.9963365 L72.1247059,62.9963365 L72.1247059,61.8286442 L76.1352941,61.8286442 L76.1352941,62.9963365 L74.7339765,62.9963365" id="Fill-57" fill="#DB322A" sketch:type="MSShapeGroup"/>
            <path d="M77.0533647,61.8286442 L78.2613176,61.8286442 L78.2613176,68.641399 L77.0533647,68.641399 L77.0533647,61.8286442 Z" id="Fill-58" fill="#DB322A" sketch:type="MSShapeGroup"/>
            <path d="M83.5381647,66.1985337 L82.9969412,66.1985337 L82.9969412,68.641399 L81.7889882,68.641399 L81.7889882,61.8286442 L83.5865882,61.8286442 C84.8719529,61.8286442 85.7416,62.5680721 85.7416,63.9991587 C85.7416,65.4683942 84.6881412,66.1985337 83.5381647,66.1985337 L83.5381647,66.1985337 Z M83.5770353,63.0159087 L82.9969412,63.0159087 L82.9969412,65.0112692 L83.5961412,65.0112692 C84.2144471,65.0112692 84.5336471,64.6413894 84.5336471,64.018399 C84.5336471,63.4537933 84.2823059,63.0159087 83.5770353,63.0159087 L83.5770353,63.0159087 Z" id="Fill-59" fill="#DB322A" sketch:type="MSShapeGroup"/>
            <path d="M86.6016941,68.641399 L86.6016941,61.8286442 L90.0713882,61.8286442 L90.0713882,62.9963365 L87.8096471,62.9963365 L87.8096471,64.4370433 L89.3269176,64.4370433 L89.3269176,65.5854952 L87.8096471,65.5854952 L87.8096471,67.473375 L90.1580235,67.473375 L90.1580235,68.641399 L86.6016941,68.641399" id="Fill-60" fill="#DB322A" sketch:type="MSShapeGroup"/>
            <path d="M93.8596235,68.641399 L92.8061647,66.0525721 L92.4098824,66.0525721 L92.4098824,68.641399 L91.2016,68.641399 L91.2016,61.8286442 L92.9992,61.8286442 C94.3138824,61.8286442 95.1545412,62.5388798 95.1545412,63.9503942 C95.1545412,64.9041202 94.6716235,65.4975865 94.0141176,65.8094135 L95.1739765,68.641399 L93.8596235,68.641399 L93.8596235,68.641399 Z M92.9415529,63.0159087 L92.4098824,63.0159087 L92.4098824,64.9140721 L93.0090824,64.9140721 C93.6277176,64.9140721 93.9465882,64.592625 93.9465882,63.9699663 C93.9465882,63.3565962 93.6662588,63.0159087 92.9415529,63.0159087 L92.9415529,63.0159087 Z" id="Fill-61" fill="#DB322A" sketch:type="MSShapeGroup"/>
            <path d="M98.3534588,68.641399 L98.3534588,61.8286442 L99.5614118,61.8286442 L99.5614118,67.4541346 L101.677882,67.4541346 L101.677882,68.641399 L98.3534588,68.641399" id="Fill-62" fill="#DB322A" sketch:type="MSShapeGroup"/>
            <path d="M103.649412,65.0112692 L102.827859,65.0112692 L102.518871,61.8286442 L103.958729,61.8286442 L103.649412,65.0112692" id="Fill-63" fill="#DB322A" sketch:type="MSShapeGroup"/>
            <path d="M105.099153,68.641399 L105.099153,61.8286442 L108.568518,61.8286442 L108.568518,62.9963365 L106.307106,62.9963365 L106.307106,64.4370433 L107.824376,64.4370433 L107.824376,65.5854952 L106.307106,65.5854952 L106.307106,67.473375 L108.655482,67.473375 L108.655482,68.641399 L105.099153,68.641399" id="Fill-64" fill="#DB322A" sketch:type="MSShapeGroup"/>
            <path d="M111.196894,68.641399 L109.699388,68.641399 L109.699388,61.8286442 L111.225882,61.8286442 C112.849882,61.8286442 113.806494,62.8311346 113.806494,65.2252356 C113.806494,67.6196683 112.782024,68.641399 111.196894,68.641399 L111.196894,68.641399 Z M111.225882,63.0159087 L110.907341,63.0159087 L110.907341,67.4541346 L111.225882,67.4541346 C112.308659,67.4541346 112.569224,66.5004087 112.569224,65.2448077 C112.569224,63.9895385 112.308659,63.0159087 111.225882,63.0159087 L111.225882,63.0159087 Z" id="Fill-65" fill="#DB322A" sketch:type="MSShapeGroup"/>
            <path d="M114.869506,61.8286442 L116.077788,61.8286442 L116.077788,68.641399 L114.869506,68.641399 L114.869506,61.8286442 Z" id="Fill-66" fill="#DB322A" sketch:type="MSShapeGroup"/>
            <path d="M117.382259,68.641399 L117.382259,61.8286442 L118.590541,61.8286442 L118.590541,67.4541346 L120.707012,67.4541346 L120.707012,68.641399 L117.382259,68.641399" id="Fill-67" fill="#DB322A" sketch:type="MSShapeGroup"/>
            <path d="M121.711718,61.8286442 L122.919671,61.8286442 L122.919671,68.641399 L121.711718,68.641399 L121.711718,61.8286442 Z" id="Fill-68" fill="#DB322A" sketch:type="MSShapeGroup"/>
            <path d="M123.954024,68.641399 L123.954024,67.5609519 L125.916,63.7656202 C126.089929,63.424601 126.254306,63.1426298 126.399247,62.9090913 C126.157459,62.9187115 125.877129,62.9283317 125.539153,62.9283317 L124.1184,62.9283317 L124.1184,61.8286442 L127.645741,61.8286442 L127.645741,62.9090913 L125.703529,66.7047548 C125.529271,67.0451106 125.364894,67.3274135 125.219953,67.5609519 C125.461741,67.5513317 125.742071,67.5413798 126.080047,67.5413798 L127.645741,67.5413798 L127.645741,68.641399 L123.954024,68.641399" id="Fill-69" fill="#DB322A" sketch:type="MSShapeGroup"/>
            <path d="M128.8056,61.8286442 L130.013553,61.8286442 L130.013553,68.641399 L128.8056,68.641399 L128.8056,61.8286442 Z" id="Fill-70" fill="#DB322A" sketch:type="MSShapeGroup"/>
            <path d="M134.352565,68.641399 L134.034024,67.2205962 L132.516424,67.2205962 L132.197882,68.641399 L130.960612,68.641399 L132.690353,61.8286442 L133.869647,61.8286442 L135.599718,68.641399 L134.352565,68.641399 L134.352565,68.641399 Z M133.589318,65.274 C133.473365,64.7485385 133.318871,63.9603462 133.270447,63.6193269 C133.222024,63.9699663 133.086965,64.699774 132.961129,65.2544279 L132.777318,66.0817644 L133.773129,66.0817644 L133.589318,65.274 L133.589318,65.274 Z" id="Fill-71" fill="#DB322A" sketch:type="MSShapeGroup"/>
        </g>
    </g>
</svg>