<?xml version="1.0" encoding="UTF-8" standalone="no"?>
<svg width="32px" height="32px" viewBox="0 0 32 32" version="1.1" xmlns="http://www.w3.org/2000/svg" xmlns:xlink="http://www.w3.org/1999/xlink" xmlns:sketch="http://www.bohemiancoding.com/sketch/ns">
    <!-- Generator: Sketch 3.3.3 (12081) - http://www.bohemiancoding.com/sketch -->
    <title>Fill 1 + Stroke 2</title>
    <desc>Created with Sketch.</desc>
    <defs/>
    <g id="Page-1" stroke="none" stroke-width="1" fill="none" fill-rule="evenodd" sketch:type="MSPage">
        <g id="Fill-1-+-Stroke-2" sketch:type="MSLayerGroup">
            <path d="M16,3 C23.1684167,3 29,8.83158333 29,16 C29,23.1684167 23.1684167,29 16,29 C8.83158333,29 3,23.1684167 3,16 C3,8.83158333 8.83158333,3 16,3 M16,2 C8.268,2 2,8.268 2,16 C2,23.732 8.268,30 16,30 C23.732,30 30,23.732 30,16 C30,8.268 23.732,2 16,2" id="Fill-1" fill="#000000" sketch:type="MSShapeGroup"/>
            <path d="M0,16 L6,16 M26,16 L32,16 M16,0 L16,6 M16,26 L16,32" id="Stroke-2" stroke="#000000" stroke-width="2" sketch:type="MSShapeGroup"/>
        </g>
    </g>
</svg>