<?xml version="1.0" encoding="UTF-8" standalone="no"?>
<svg width="32px" height="30px" viewBox="0 0 32 30" version="1.1" xmlns="http://www.w3.org/2000/svg" xmlns:xlink="http://www.w3.org/1999/xlink" xmlns:sketch="http://www.bohemiancoding.com/sketch/ns">
    <!-- Generator: Sketch 3.3.3 (12081) - http://www.bohemiancoding.com/sketch -->
    <title>Imported Layers 4</title>
    <desc>Created with Sketch.</desc>
    <defs/>
    <g id="Page-1" stroke="none" stroke-width="1" fill="none" fill-rule="evenodd" sketch:type="MSPage">
        <path d="M26.667,12 L32,9 L16,0 L0,9 L5.333,12 L0,15 L5.333,18 L0,21 L16,30 L32,21 L26.667,18 L32,15 L26.667,12 L26.667,12 Z M16,1.147 L29.96,9 L16,16.853 L2.04,9 L16,1.147 L16,1.147 Z M6.353,12.574 L16,18 L25.647,12.574 L29.96,15 L16,22.853 L2.04,15 L6.353,12.574 L6.353,12.574 Z M29.96,21 L16,28.853 L2.04,21 L6.353,18.574 L16,24 L25.647,18.574 L29.96,21 L29.96,21 Z" id="Imported-Layers-4" fill="#000000" sketch:type="MSShapeGroup"/>
    </g>
</svg>