<?xml version="1.0" encoding="UTF-8" standalone="no"?>
<svg width="36px" height="22px" viewBox="0 0 36 22" version="1.1" xmlns="http://www.w3.org/2000/svg" xmlns:xlink="http://www.w3.org/1999/xlink" xmlns:sketch="http://www.bohemiancoding.com/sketch/ns">
    <!-- Generator: Sketch 3.3.3 (12081) - http://www.bohemiancoding.com/sketch -->
    <title>Imported Layers</title>
    <desc>Created with Sketch.</desc>
    <defs/>
    <g id="Page-1" stroke="none" stroke-width="1" fill="none" fill-rule="evenodd" sketch:type="MSPage">
        <path d="M36.001,0 L12,0 L0,22 L24.001,22 L36.001,0 L36.001,0 Z M12.594,1 L34.014,1 L30.614,3 L11.503,3 L12.594,1 L12.594,1 Z M10.214,15 L4.957,15 L6.048,13 L13.614,13 L10.214,15 L10.214,15 Z M15.314,12 L6.594,12 L7.685,10 L18.714,10 L15.314,12 L15.314,12 Z M20.414,9 L8.23,9 L9.321,7 L23.814,7 L20.414,9 L20.414,9 Z M25.514,6 L9.866,6 L10.957,4 L28.914,4 L25.514,6 L25.514,6 Z M4.412,16 L8.514,16 L2.474,19.553 L4.412,16 L4.412,16 Z M23.408,21 L1.986,21 L33.527,2.447 L23.408,21 L23.408,21 Z" id="Imported-Layers" fill="#000000" sketch:type="MSShapeGroup"/>
    </g>
</svg>